<svg id="Layer_1" data-name="Layer 1" xmlns="http://www.w3.org/2000/svg" viewBox="0 0 612 77.16"><defs><style>.cls-1{fill:#ddd;}</style></defs><path class="cls-1" d="M32.33,53.82a11.24,11.24,0,0,0-1.85-.31c-.86-.09-1.86-.19-3-.28S25.05,53,23.71,53s-2.7-.17-4.06-.22-2.68-.11-3.95-.14-2.39-.06-3.36-.06-1.7,0-2.3.06-1.11.07-1.54.11a11,11,0,0,0-1.09.14c-.3,0-.63.1-1,.14a.68.68,0,0,1-.22-.09c-.11,0-.17-.12-.17-.19a1.29,1.29,0,0,0-.08-.39,1.45,1.45,0,0,1-.11-.42A.53.53,0,0,1,6,51.47,2.15,2.15,0,0,1,6.63,51L10,48.39c1.3-1,2.65-2.12,4-3.34s2.76-2.48,4.14-3.8a41.37,41.37,0,0,0,3.7-4,24.09,24.09,0,0,0,2.63-4,9.05,9.05,0,0,0,1.07-3.78,14.15,14.15,0,0,0-.48-3.69,10,10,0,0,0-1.43-3.17,7.29,7.29,0,0,0-2.35-2.18,6.37,6.37,0,0,0-3.25-.81,6.11,6.11,0,0,0-3,.73,8.77,8.77,0,0,0-2.32,1.79,8.38,8.38,0,0,0-1.54,2.35,6,6,0,0,0-.56,2.35,1.1,1.1,0,0,1-.06.42c0,.09-.15.14-.33.14a1.25,1.25,0,0,1-.7-.31,3.87,3.87,0,0,1-.79-.78,6.73,6.73,0,0,1-.64-1,2.41,2.41,0,0,1-.28-1.12,3.41,3.41,0,0,1,1.48-2.77,27.21,27.21,0,0,1,4.34-2.55,34,34,0,0,1,5-1.85,18,18,0,0,1,4.65-.72,8,8,0,0,1,6,2.68A9.23,9.23,0,0,1,31.18,22,12.13,12.13,0,0,1,31.83,26a9.54,9.54,0,0,1-1,4.09,23.74,23.74,0,0,1-2.58,4.17,41.1,41.1,0,0,1-3.61,4.12c-1.34,1.34-2.72,2.62-4.12,3.84s-2.75,2.35-4.06,3.41L13,48.5a16.5,16.5,0,0,0,2.8.56,41,41,0,0,0,5.77.33c1.46,0,2.86,0,4.2,0a20.69,20.69,0,0,0,3.7-.42,7.53,7.53,0,0,0,2.91-1.26,5.75,5.75,0,0,0,1.9-2.58.81.81,0,0,1,.23-.11.39.39,0,0,1,.33,0,.62.62,0,0,1,.28.31.79.79,0,0,1,0,.61,12.38,12.38,0,0,0-.45,1.43c-.15.58-.29,1.19-.42,1.82s-.27,1.27-.42,1.9-.3,1.18-.44,1.63C33.21,53.45,32.85,53.82,32.33,53.82Z"/><path class="cls-1" d="M40.17,44.13a13.3,13.3,0,0,1-.64-3.33c-.1-1.25-.14-2.53-.14-3.84a31.77,31.77,0,0,1,.33-3.78,36,36,0,0,1,.73-3.61,20.55,20.55,0,0,1,1.09-3.19A12.17,12.17,0,0,1,43,23.91a17.55,17.55,0,0,1,3.08-3.07,23,23,0,0,1,3.78-2.41,21.91,21.91,0,0,1,4-1.57,13.54,13.54,0,0,1,3.61-.56,10.55,10.55,0,0,1,5.38,1.34,11.43,11.43,0,0,1,3.8,3.62,16.16,16.16,0,0,1,2.24,5.23,26,26,0,0,1,.73,6.27c0,1.09-.12,2.21-.25,3.36a12.7,12.7,0,0,1-.76,3.2,21,21,0,0,1-2.91,5.37,27.25,27.25,0,0,1-4.2,4.54,21.94,21.94,0,0,1-4.76,3.13A10.73,10.73,0,0,1,52,53.54a11.24,11.24,0,0,1-3.83-.67A12.4,12.4,0,0,1,44.76,51,13,13,0,0,1,42,48,14.82,14.82,0,0,1,40.17,44.13ZM45.6,33.88a29.06,29.06,0,0,0,.7,6.53,19.21,19.21,0,0,0,2,5.18A10.28,10.28,0,0,0,51.32,49a6.86,6.86,0,0,0,4,1.24,5,5,0,0,0,3.53-1.35,10.28,10.28,0,0,0,2.38-3.44,19.09,19.09,0,0,0,1.34-4.68,36.72,36.72,0,0,0,.48-5,31,31,0,0,0-.87-7.9,17.71,17.71,0,0,0-2.21-5.26A9.13,9.13,0,0,0,57,19.69a6.06,6.06,0,0,0-3-.93,5.27,5.27,0,0,0-3.53,1.29,10.78,10.78,0,0,0-2.58,3.39,19.21,19.21,0,0,0-1.62,4.73,28.93,28.93,0,0,0-.62,5.32Z"/><path class="cls-1" d="M101.94,44.91c.07-.07.14-.06.19,0a1,1,0,0,1,.12.4,1.62,1.62,0,0,1,0,.53.88.88,0,0,1-.23.45,24.43,24.43,0,0,1-2.8,2.23,39,39,0,0,1-3.47,2.19c-.33.19-.8.43-1.4.73s-1.26.58-2,.87a22.53,22.53,0,0,1-2.24.72,8.09,8.09,0,0,1-2.15.31,9.44,9.44,0,0,1-3.81-.78,9.75,9.75,0,0,1-5.24-5.43A11.26,11.26,0,0,1,78.14,43a15,15,0,0,1,.67-4.54,24.43,24.43,0,0,1,1.54-3.8A27.48,27.48,0,0,1,82,31.84a19.35,19.35,0,0,0,1.07-1.71c-.71,0-1.36-.06-1.94-.08l-1.65,0c-1.19,0-2.2,0-3,0a10.82,10.82,0,0,0-2.19.25,2,2,0,0,0-.84.45,5,5,0,0,1-.67.5c-.07-.07-.17-.18-.31-.31a.58.58,0,0,1-.19-.42.29.29,0,0,1,0-.17,5.42,5.42,0,0,1,.73-.64c.49-.39,1.09-.86,1.82-1.4l2.41-1.79c.88-.65,1.72-1.26,2.52-1.82s1.49-1,2.07-1.43a9,9,0,0,1,1.15-.7.75.75,0,0,1,.67.11c.23.15.3.26.23.34a3.67,3.67,0,0,0-.51.42c-.22.2-.3.38-.22.53a5.7,5.7,0,0,0,2.13.9,29,29,0,0,0,3.41.64c1.27.17,2.58.3,3.92.39s2.56.14,3.64.14c1.61,0,2.9,0,3.87-.14a17.72,17.72,0,0,0,2.4-.36,10.18,10.18,0,0,0,1.18-.34s.11.06.22.17a.5.5,0,0,1,.17.39c0,.08-.27.26-.81.56s-1.09.62-1.65,1c-.34.18-.74.42-1.21.72s-1,.59-1.51.87a16.67,16.67,0,0,1-1.71.76A6.23,6.23,0,0,1,95.5,30c-.56.07-1.21.13-2,.17l-2.35.08-2.5.06c-.84,0-1.61,0-2.32,0l-.53.93a9.49,9.49,0,0,0-.7,1.65,21.43,21.43,0,0,0-.62,2.3,13.62,13.62,0,0,0-.28,2.8,12.51,12.51,0,0,0,.7,4.23,10.22,10.22,0,0,0,2,3.33,8.92,8.92,0,0,0,3,2.18,9.06,9.06,0,0,0,3.75.78,9.47,9.47,0,0,0,2.27-.27A12.34,12.34,0,0,0,98,47.55a16.44,16.44,0,0,0,1.82-1,15.11,15.11,0,0,0,1.46-1Z"/><path class="cls-1" d="M113.42,30.91c.75-.67,1.58-1.37,2.52-2.09a27.3,27.3,0,0,1,2.94-2,16.86,16.86,0,0,1,3.22-1.51,10.07,10.07,0,0,1,3.41-.59,10.87,10.87,0,0,1,3.78.64,9.19,9.19,0,0,1,3.11,1.88,9,9,0,0,1,2.13,2.94,9.14,9.14,0,0,1,.78,3.83,20.66,20.66,0,0,1-1.48,7.93,30.13,30.13,0,0,1-3.47,6.33,30.93,30.93,0,0,1-4,4.51,22,22,0,0,1-2.91,2.35.42.42,0,0,1-.56-.12.4.4,0,0,1,0-.61,8.56,8.56,0,0,0,1.37-1.65,22.86,22.86,0,0,0,1.88-3.34,30.37,30.37,0,0,0,1.68-4.59,20.45,20.45,0,0,0,.72-5.54,14.92,14.92,0,0,0-.58-4.37,10,10,0,0,0-1.6-3.19,7,7,0,0,0-2.32-2,6.11,6.11,0,0,0-2.83-.67,8.28,8.28,0,0,0-2.13.3,8.7,8.7,0,0,0-2.07.87,11.77,11.77,0,0,0-2,1.52,6.08,6.08,0,0,0-1.4,1.84c-.08.15-.14.29-.2.42a5,5,0,0,0-.17.56c0,.25-.11.55-.16.93A13.76,13.76,0,0,0,113,37c-.12,1.08-.2,2.14-.26,3.16s-.08,2.25-.08,3.67a19.88,19.88,0,0,0,.34,4.23,2.1,2.1,0,0,0,2,1.71l.39,0,.5-.08.56-.17a.25.25,0,0,1,.25.17.68.68,0,0,1,.09.33c0,.11-.21.28-.62.5a12.83,12.83,0,0,1-1.57.71q-.95.36-2.1.72l-2.15.7-1.82.51a4.42,4.42,0,0,1-1,.22q-1.68,0-1.68-1.29a4.31,4.31,0,0,1,.28-1.06,10.78,10.78,0,0,0,.45-2.41c.15-1.57.3-3.29.45-5.18s.27-3.78.36-5.68.17-3.77.23-5.6.08-3.47.08-4.93q0-4-.14-6.83c-.09-1.87-.18-3.19-.25-4a10.69,10.69,0,0,0-.34-1.93,5,5,0,0,0-.39-.87,1.63,1.63,0,0,0-.7-.7,3,3,0,0,0-.78-.25,2.28,2.28,0,0,0-.62,0c-.17,0-.25,0-.25-.08a1.75,1.75,0,0,1,.5-1.29,1.82,1.82,0,0,1,1.35-.5q1.62,0,3.36-.06c1.15,0,2.22-.09,3.19-.17a19.92,19.92,0,0,0,2.27-.33c.69-.15,1.14-.27,1.37-.34s.46,0,.47.14a5.37,5.37,0,0,1,0,.7.54.54,0,0,1-.28.5,2.43,2.43,0,0,1-.61.28l-.65.2a.77.77,0,0,0-.42.25,6.92,6.92,0,0,0-.45,2.07c-.14,1.16-.29,2.63-.42,4.4s-.24,3.74-.33,5.91-.16,4.35-.2,6.55Z"/><path class="cls-1" d="M185.32,53c-.37,0-.88,0-1.51.05s-1.32.07-2,.09l-2.24.08q-1.16.06-2.1.06a23.76,23.76,0,0,1-7.34-1.15,17.69,17.69,0,0,1-6.36-3.58,18.11,18.11,0,0,1-4.48-6.27,22.56,22.56,0,0,1-1.7-9.22,19.52,19.52,0,0,1,1.87-8.73,19.3,19.3,0,0,1,5-6.39A22.22,22.22,0,0,1,171.32,14a24.06,24.06,0,0,1,7.9-1.34c.59,0,1.41,0,2.43.11s2.06.17,3.08.28,1.94.23,2.75.36a7.5,7.5,0,0,1,1.54.37,20.75,20.75,0,0,1,1.62-3.47A5.83,5.83,0,0,1,193.11,8a1.84,1.84,0,0,1,1-.06c.38.08.56.27.56.56a2.05,2.05,0,0,1-.42.62.52.52,0,0,1-.36.11,1.93,1.93,0,0,0-1.32.62,6.89,6.89,0,0,0-1.2,1.59,12.68,12.68,0,0,0-1,2.25,16,16,0,0,0-.64,2.54c-.08.41-.16.89-.26,1.43s-.17,1.07-.25,1.6-.13,1-.17,1.51,0,.9,0,1.23a.62.62,0,0,1-.23.48.68.68,0,0,1-.44.19,1.4,1.4,0,0,1-.79-.33,9.78,9.78,0,0,0-.92-2.8,8.26,8.26,0,0,0-2-2.52,9.29,9.29,0,0,0-3.14-1.79,13.14,13.14,0,0,0-4.45-.68,9.36,9.36,0,0,0-4.9,1.29,11.34,11.34,0,0,0-3.64,3.53,17.19,17.19,0,0,0-2.27,5.32,26.8,26.8,0,0,0-.78,6.61,34.32,34.32,0,0,0,1,8.65,21.31,21.31,0,0,0,2.71,6.41,12.14,12.14,0,0,0,4.15,4,10.38,10.38,0,0,0,5.26,1.38,11.63,11.63,0,0,0,3.73-.62,13.55,13.55,0,0,0,3.36-1.68A14.61,14.61,0,0,0,188.43,47a11.85,11.85,0,0,0,1.88-3c.07-.15.27-.26.58-.34s.48,0,.48.12a6,6,0,0,1-.48,2,27.39,27.39,0,0,1-1.09,2.52c-.41.84-.82,1.61-1.23,2.3s-.69,1.15-.84,1.37-.25.61-.42,1a10.84,10.84,0,0,0-.45,1.45q-.2.81-.36,1.68a9.18,9.18,0,0,0-.17,1.71,1.84,1.84,0,0,1-.22,1.12,1.42,1.42,0,0,1-1,.23c-.41,0-.59-.29-.56-.87a15.73,15.73,0,0,1,.28-2q.23-1.12.45-2.1T185.32,53Z"/><path class="cls-1" d="M222.67,46.15c-.41.44-1,1.06-1.9,1.84a24,24,0,0,1-3.11,2.36,21.33,21.33,0,0,1-4.06,2,13.43,13.43,0,0,1-4.76.84,14.51,14.51,0,0,1-4.48-.7,11.59,11.59,0,0,1-3.92-2.13,10.21,10.21,0,0,1-2.77-3.63,12.43,12.43,0,0,1-1-5.3A24.65,24.65,0,0,1,197,37.1a15.73,15.73,0,0,1,.9-3.19,11.24,11.24,0,0,1,1.26-2.35,17.54,17.54,0,0,1,1.42-1.76,12.2,12.2,0,0,1,2.19-1.91,20.31,20.31,0,0,1,2.77-1.62,15.67,15.67,0,0,1,3.14-1.15A13.45,13.45,0,0,1,212,24.7a9.26,9.26,0,0,1,4.73,1,3.1,3.1,0,0,1,1.71,2.8,3.59,3.59,0,0,1-.67,2.07,12.25,12.25,0,0,0,1.42-.56l1.77-.81c.59-.28,1.13-.53,1.59-.76a6.43,6.43,0,0,0,.93-.5.25.25,0,0,1,.25-.09.18.18,0,0,1,.14.2,2.29,2.29,0,0,1-.28,1.2,2.49,2.49,0,0,1-.67.76c-.6.37-1.46.84-2.58,1.4s-2.36,1.15-3.72,1.76-2.77,1.23-4.23,1.85l-4.12,1.77c-1.28.55-2.4,1.05-3.36,1.48s-1.59.74-1.93.92a8.37,8.37,0,0,0,.76,3.56,8.77,8.77,0,0,0,2.1,2.88A9.6,9.6,0,0,0,209,47.57a11.59,11.59,0,0,0,4.11.71,14.48,14.48,0,0,0,3.64-.43,15.07,15.07,0,0,0,2.75-1A15.38,15.38,0,0,0,221.3,46a4.55,4.55,0,0,1,.7-.42.7.7,0,0,1,.45.2A.55.55,0,0,1,222.67,46.15ZM203,37.58l2.16-.81c.8-.32,1.58-.67,2.35-1s1.46-.73,2.1-1.06a11.49,11.49,0,0,0,1.46-.9,2.83,2.83,0,0,0,1-2.46,4.19,4.19,0,0,0-.25-1.4,4.11,4.11,0,0,0-.75-1.32,3.91,3.91,0,0,0-1.24-.95,3.57,3.57,0,0,0-1.62-.36,3.28,3.28,0,0,0-1.68.53,5.26,5.26,0,0,0-1.68,1.73,11.51,11.51,0,0,0-1.32,3.2A19.17,19.17,0,0,0,203,37.58Z"/><path class="cls-1" d="M234.6,37.91c0,.34-.07.64-.11.9a7.34,7.34,0,0,0-.08.9q0,.49-.06,1.26t0,2a32.69,32.69,0,0,0,.14,3.31,8.39,8.39,0,0,0,.42,2,2.08,2.08,0,0,0,.7,1,1.82,1.82,0,0,0,1,.28,3.73,3.73,0,0,0,.84-.11c.07,0,.14.1.19.31s0,.34,0,.42a10.3,10.3,0,0,1-1.31.81,22,22,0,0,1-2.21,1,25.56,25.56,0,0,1-2.55.9,8.1,8.1,0,0,1-2.21.39,3.19,3.19,0,0,1-1.24-.19c-.29-.14-.44-.29-.44-.48a.7.7,0,0,1,.05-.34.91.91,0,0,0,.17-.28,2.76,2.76,0,0,0,.17-.7c0-.28.09-.6.17-1s.15-1.18.22-2,.15-1.67.23-2.63.13-1.94.19-3,.09-2,.09-3c0-.41,0-.93,0-1.54s0-1.41-.09-2.38a13,13,0,0,0-.36-2.77,6.43,6.43,0,0,0-.78-1.85,3.39,3.39,0,0,0-1.07-1,2.32,2.32,0,0,0-1.15-.33h-.56a3.64,3.64,0,0,0-.56.05c-.15,0-.22-.16-.22-.5a.3.3,0,0,1,.08-.2q.09-.07.54-.36c.48-.34,1.13-.75,2-1.23s1.66-.94,2.51-1.35,1.68-.76,2.44-1.06a5.33,5.33,0,0,1,1.76-.45c1.09,0,1.63.62,1.63,1.85,0,.19,0,.52-.06,1s-.06,1-.08,1.48,0,1-.08,1.43-.06.75-.06.89c.78-.74,1.62-1.51,2.52-2.29A22.63,22.63,0,0,1,240.2,27a17.28,17.28,0,0,1,3.3-1.59,10.71,10.71,0,0,1,3.59-.62,7.91,7.91,0,0,1,5.51,1.93q2.16,1.94,2.16,6.13c0,.75,0,1.63-.14,2.64s-.2,2.05-.31,3.13-.21,2.15-.31,3.2-.13,2-.13,2.79c0,3,1,4.48,2.91,4.48a4.76,4.76,0,0,0,1.26-.19,14,14,0,0,0,1.34-.45c.43-.17.81-.34,1.15-.5a2.8,2.8,0,0,0,.67-.42s.09,0,.14.08a1.35,1.35,0,0,1,.14.36,1,1,0,0,1,0,.4.41.41,0,0,1-.09.22c-.29.19-.94.54-1.93,1.07s-2.09,1-3.3,1.59-2.42,1-3.61,1.46a9,9,0,0,1-2.86.64,1.9,1.9,0,0,1-2.24-1.9,6,6,0,0,1,.14-1.12c.09-.45.21-1.18.37-2.19s.28-2.35.42-3.81.19-3,.19-4.7c0-3.28-.61-5.78-1.82-7.47a5.42,5.42,0,0,0-4.56-2.55,6.74,6.74,0,0,0-3.08.67,7,7,0,0,0-2.3,1.82,9.08,9.08,0,0,0-1.51,2.63A12.56,12.56,0,0,0,234.6,37.91Z"/><path class="cls-1" d="M289.71,44.91c.07-.07.13-.06.19,0a1,1,0,0,1,.11.4,1.62,1.62,0,0,1,0,.53.87.87,0,0,1-.22.45,25.34,25.34,0,0,1-2.8,2.23,40.45,40.45,0,0,1-3.47,2.19c-.34.19-.8.43-1.4.73s-1.26.58-2,.87a23.41,23.41,0,0,1-2.24.72,8.15,8.15,0,0,1-2.15.31,9.41,9.41,0,0,1-3.81-.78,9.75,9.75,0,0,1-5.24-5.43A11.26,11.26,0,0,1,265.9,43a15,15,0,0,1,.68-4.54,23.49,23.49,0,0,1,1.54-3.8,27.48,27.48,0,0,1,1.65-2.83,16.62,16.62,0,0,0,1.06-1.71c-.71,0-1.35-.06-1.93-.08l-1.65,0c-1.2,0-2.2,0-3,0a10.63,10.63,0,0,0-2.18.25,1.92,1.92,0,0,0-.84.45,5,5,0,0,1-.67.5l-.31-.31a.59.59,0,0,1-.2-.42.24.24,0,0,1,.06-.17,4.7,4.7,0,0,1,.73-.64c.48-.39,1.09-.86,1.82-1.4L265,26.52c.87-.65,1.71-1.26,2.52-1.82s1.49-1,2.07-1.43a9,9,0,0,1,1.15-.7.75.75,0,0,1,.67.11c.22.15.3.26.22.34a3.75,3.75,0,0,0-.5.42c-.23.2-.3.38-.23.53a5.77,5.77,0,0,0,2.13.9,29.56,29.56,0,0,0,3.42.64c1.27.17,2.57.3,3.92.39s2.56.14,3.64.14c1.6,0,2.89,0,3.86-.14a17.9,17.9,0,0,0,2.41-.36,10.18,10.18,0,0,0,1.18-.34s.11.06.22.17a.54.54,0,0,1,.17.39c0,.08-.27.26-.81.56s-1.1.62-1.66,1q-.5.27-1.2.72c-.47.3-1,.59-1.51.87a16.67,16.67,0,0,1-1.71.76,6.3,6.3,0,0,1-1.74.39c-.55.07-1.21.13-2,.17l-2.35.08-2.49.06c-.84,0-1.61,0-2.32,0-.12.19-.29.5-.54.93a10.34,10.34,0,0,0-.7,1.65c-.22.67-.42,1.44-.61,2.3A13,13,0,0,0,272,38a12.27,12.27,0,0,0,.7,4.23,10,10,0,0,0,2,3.33,9,9,0,0,0,6.75,3,9.33,9.33,0,0,0,2.26-.27,12.78,12.78,0,0,0,2.08-.73,16.44,16.44,0,0,0,1.82-1,14.88,14.88,0,0,0,1.45-1Z"/><path class="cls-1" d="M291.72,29.57q-.45-.11-.42-.45t.42-.39l1.06-.39c.6-.23,1.32-.49,2.16-.79s1.72-.61,2.63-.95,1.73-.61,2.44-.84l.92-.31a1.59,1.59,0,0,1,.42-.08.81.81,0,0,1,.39.14.31.31,0,0,1,.12.42,11,11,0,0,0-.37,2.13q-.19,1.68-.36,3.72c-.11,1.37-.22,2.72-.31,4.06s-.14,2.41-.14,3.19q0,4.48,1.9,6.92c1.27,1.62,3.25,2.44,5.94,2.44a6.34,6.34,0,0,0,5.54-2.8,7.43,7.43,0,0,0,.68-3.2c0-.29,0-.69,0-1.17s0-1,.06-1.54,0-1.07.06-1.57,0-.92,0-1.26a43.24,43.24,0,0,0-.14-4.79,13.77,13.77,0,0,0-.58-3.27c-.12-.45-.34-.68-.68-.68s-.43,0-.64,0-.33-.14-.36-.47c0-.12.11-.24.33-.37a14,14,0,0,1,1.29-.58c.6-.23,1.26-.45,2-.68s1.44-.41,2.15-.56a16.45,16.45,0,0,1,1.91-.3,2.63,2.63,0,0,1,1.23.08s0,.08.08.14a.65.65,0,0,1,.14.36,7,7,0,0,1-.14,2.1q-.24,1.77-.53,5.74c-.15,1.83-.28,3.61-.39,5.32s-.17,3-.17,3.92a7.7,7.7,0,0,0,1,4.17,2.86,2.86,0,0,0,2.44,1.54,4.41,4.41,0,0,0,1.82-.39,7.48,7.48,0,0,0,1.26-.67c.3,0,.45.13.47.39s0,.43-.19.51c-.56.37-1.34.84-2.33,1.4s-2,1.09-3.08,1.59a32.54,32.54,0,0,1-3.05,1.29,7.09,7.09,0,0,1-2.35.53,1,1,0,0,1-.81-.59,5,5,0,0,1-.59-1.42,13.61,13.61,0,0,1-.45-3.31c-.78.56-1.68,1.15-2.69,1.77s-2.05,1.19-3.13,1.73a22.77,22.77,0,0,1-3.22,1.32,10.07,10.07,0,0,1-2.94.5,8.4,8.4,0,0,1-5.6-1.82,5.86,5.86,0,0,1-2.19-4.73c0-.41,0-1,.12-1.85s.16-1.75.28-2.8.2-2.16.28-3.36.11-2.35.11-3.47a7.87,7.87,0,0,0-.81-4,2.92,2.92,0,0,0-2.1-1.54Z"/><path class="cls-1" d="M355.73,28.9c-.41.34-.9.76-1.46,1.26s-1.15,1-1.76,1.45a13.89,13.89,0,0,1-1.88,1.21,3.87,3.87,0,0,1-1.85.5,2.73,2.73,0,0,1-1.4-.36,10.85,10.85,0,0,1-1.14-.78c-.36-.29-.7-.55-1-.79a1.81,1.81,0,0,0-1.06-.36,3.21,3.21,0,0,0-2.55,1.23,9.67,9.67,0,0,0-1.68,3.13,22.14,22.14,0,0,0-1,4.15,30.9,30.9,0,0,0-.31,4.31,23.8,23.8,0,0,0,.14,2.83,6.15,6.15,0,0,0,.42,1.73,1.61,1.61,0,0,0,.75.87,2.68,2.68,0,0,0,1.15.23,6.08,6.08,0,0,0,1.57-.23c.11,0,.2,0,.25.23A1.48,1.48,0,0,1,343,50c0,.08-.06.16-.17.26a.55.55,0,0,1-.23.14c-.82.33-1.66.7-2.52,1.09l-2.12,1c-.53.22-1.15.47-1.88.73a5.73,5.73,0,0,1-1.88.39,3.4,3.4,0,0,1-1.48-.28c-.39-.19-.59-.37-.59-.56a.92.92,0,0,1,.14-.5,2.64,2.64,0,0,0,.25-.85c.08-.55.16-1.22.26-2s.18-1.6.28-2.5.16-1.82.22-2.77.08-1.89.08-2.82c0-2.1-.06-3.87-.19-5.33a14,14,0,0,0-.7-3.52,3.94,3.94,0,0,0-1.37-1.94,3.9,3.9,0,0,0-2.22-.58h-.5A2.3,2.3,0,0,0,328,30a.29.29,0,0,1-.33-.33.55.55,0,0,1,.33-.51c.41-.26,1.05-.64,1.91-1.15s1.74-1,2.66-1.45,1.8-.89,2.66-1.26a5.55,5.55,0,0,1,1.9-.56,1.7,1.7,0,0,1,1.23.48,2.85,2.85,0,0,1,.76,1.2,7.46,7.46,0,0,1,.36,1.65,14.1,14.1,0,0,1,.11,1.82c0,.45,0,.92,0,1.4s0,1,0,1.57A41.92,41.92,0,0,1,344,27.08a5.68,5.68,0,0,1,3.81-2,2,2,0,0,1,1.32.56c.43.38.89.8,1.37,1.26A12.61,12.61,0,0,0,352,28.11a2.74,2.74,0,0,0,1.63.57,2.52,2.52,0,0,0,1.06-.17c.22-.12.41-.21.56-.28.3,0,.45.2.45.61Z"/><path class="cls-1" d="M357.35,69.33c.34-.37.84-1,1.51-1.85s1.41-1.83,2.22-2.91,1.62-2.24,2.46-3.47l2.38-3.5c.75-1.1,1.39-2.11,1.93-3a12.18,12.18,0,0,0,1-2c-.6-1.57-1.23-3.23-1.91-5s-1.37-3.49-2.1-5.21-1.45-3.36-2.18-4.93a42.56,42.56,0,0,0-2.16-4.11,17.84,17.84,0,0,0-2-2.83,2.65,2.65,0,0,0-1.76-1.07,1.23,1.23,0,0,0-.51.14l-.5.26c-.11.07-.24,0-.39-.29s-.15-.42,0-.5.58-.39,1.31-.84,1.54-.92,2.44-1.43,1.76-1,2.6-1.37a4.92,4.92,0,0,1,1.82-.61c.37,0,.81.33,1.32,1a17,17,0,0,1,1.57,2.72c.54,1.14,1.11,2.43,1.7,3.89s1.2,3,1.8,4.56,1.18,3.19,1.76,4.79,1.13,3.1,1.65,4.48c.49-.74,1.11-1.81,1.88-3.19s1.5-2.85,2.21-4.42a46,46,0,0,0,1.82-4.65,13,13,0,0,0,.76-3.87,3,3,0,0,0-.79-2.32,2.52,2.52,0,0,0-1.73-.7c-.49,0-.87,0-1.15,0a5.84,5.84,0,0,0-.93.14.8.8,0,0,1-.33-.14.46.46,0,0,1-.23-.42c0-.19.41-.39,1.24-.62s1.77-.43,2.85-.61,2.15-.35,3.19-.48a20.66,20.66,0,0,1,2.19-.19,2.94,2.94,0,0,1,1.9.5,1.49,1.49,0,0,1,.62,1.17,17.88,17.88,0,0,1-1.43,3.5q-1.1,2.16-2.6,4.71c-1,1.7-2.09,3.45-3.22,5.26s-2.23,3.52-3.28,5.13l-2.83,4.31c-.84,1.27-1.45,2.2-1.82,2.8-.75,1.16-1.45,2.36-2.13,3.61s-1.28,2.5-1.84,3.75-1.06,2.45-1.49,3.59a19.12,19.12,0,0,0-.92,3.11c-.11.56,0,.92.31,1.09a1.93,1.93,0,0,0,1.23.11,7.62,7.62,0,0,0,1.65-.53A6.22,6.22,0,0,0,370,66c.19-.15.31-.18.37-.08a.89.89,0,0,1,.08.42,1.8,1.8,0,0,1-.11.58.92.92,0,0,1-.28.43s-.47.16-1.29.5-1.81.7-3,1.09-2.38.76-3.67,1.09a13.41,13.41,0,0,1-3.38.51c-.94,0-1.4-.3-1.4-.9a.42.42,0,0,1,0-.17A.2.2,0,0,0,357.35,69.33Z"/><path class="cls-1" d="M413.74,51.52A26.67,26.67,0,0,1,410.5,53a10.79,10.79,0,0,1-4.09.79,5.38,5.38,0,0,1-1.85-.23.86.86,0,0,1-.56-.89,2.26,2.26,0,0,1,.17-.81c.11-.32.26-.48.44-.48a.46.46,0,0,1,.28.17,1.32,1.32,0,0,0,1,.5c.45,0,.93.06,1.46.06a3.7,3.7,0,0,0,2.13-.81,4.46,4.46,0,0,0,1.4-2,17.49,17.49,0,0,0,.44-2.46c.15-1.12.28-2.47.37-4s.17-3.32.22-5.24.09-3.95.09-6.08q0-7.27-.4-11.34c-.26-2.7-.59-4.26-1-4.67a3.28,3.28,0,0,0-1.54-.67,10.69,10.69,0,0,0-1.88-.17q-.45,0-.9,0l-.72,0a.63.63,0,0,1-.53-.26.78.78,0,0,1-.2-.53c0-.67.24-1,.73-1,.26,0,.72,0,1.4.09s1.44.11,2.32.16,1.8.11,2.77.15,1.85.05,2.63.05a8,8,0,0,0,2.72-.45c.84-.3,1.71-.63,2.6-1a26.75,26.75,0,0,1,2.95-1,13.73,13.73,0,0,1,3.72-.45A25.4,25.4,0,0,1,436.11,12a17.59,17.59,0,0,1,6.47,4.23,16.92,16.92,0,0,1,3.73,6.1,21.49,21.49,0,0,1,1.2,7.14,26.74,26.74,0,0,1-5.94,16.6,22.21,22.21,0,0,1-6.91,5.66,19,19,0,0,1-9.05,2.15,22.42,22.42,0,0,1-2.65-.19c-1.07-.13-2.16-.31-3.28-.53s-2.21-.48-3.28-.76A20.3,20.3,0,0,1,413.74,51.52Zm13.16.06a10.31,10.31,0,0,0,5.77-1.6,13.55,13.55,0,0,0,4.12-4.2,20.13,20.13,0,0,0,2.49-6,28.32,28.32,0,0,0,.84-6.89,30.11,30.11,0,0,0-.93-7.42A21,21,0,0,0,436.37,19a15.45,15.45,0,0,0-4.74-4.65,12.1,12.1,0,0,0-6.58-1.76,9.27,9.27,0,0,0-1.51.14,6.4,6.4,0,0,0-1.73.53,6,6,0,0,0-1.52,1,3,3,0,0,0-.89,1.57,17.43,17.43,0,0,0-.31,2c-.09.86-.19,1.86-.28,3s-.16,2.37-.2,3.69-.05,2.7-.05,4.12q0,4.81,0,8.06c0,2.17,0,3.92.08,5.27s.08,2.34.14,3,.1,1.09.14,1.32a4.64,4.64,0,0,0,.81,1.87,7.53,7.53,0,0,0,1.68,1.71,8.35,8.35,0,0,0,2.41,1.26A9.16,9.16,0,0,0,426.9,51.58Z"/><path class="cls-1" d="M479.21,46.15c-.42.44-1,1.06-1.91,1.84a23.32,23.32,0,0,1-3.11,2.36,21,21,0,0,1-4.06,2,13.43,13.43,0,0,1-4.76.84,14.51,14.51,0,0,1-4.48-.7A11.59,11.59,0,0,1,457,50.37a10.33,10.33,0,0,1-2.77-3.63,12.43,12.43,0,0,1-1-5.3,24.74,24.74,0,0,1,.33-4.34,16.41,16.41,0,0,1,.9-3.19,11.24,11.24,0,0,1,1.26-2.35,16.29,16.29,0,0,1,1.43-1.76,11.79,11.79,0,0,1,2.18-1.91A20.31,20.31,0,0,1,462,26.27a15.9,15.9,0,0,1,3.14-1.15,13.45,13.45,0,0,1,3.33-.42,9.24,9.24,0,0,1,4.73,1,3.1,3.1,0,0,1,1.71,2.8,3.52,3.52,0,0,1-.67,2.07,12.29,12.29,0,0,0,1.43-.56l1.76-.81,1.6-.76A6.74,6.74,0,0,0,480,28a.25.25,0,0,1,.25-.09.18.18,0,0,1,.14.2,2.29,2.29,0,0,1-.28,1.2,2.37,2.37,0,0,1-.67.76c-.6.37-1.46.84-2.58,1.4s-2.36,1.15-3.72,1.76-2.77,1.23-4.23,1.85l-4.11,1.77c-1.29.55-2.41,1.05-3.36,1.48s-1.6.74-1.94.92a8.52,8.52,0,0,0,.76,3.56,8.77,8.77,0,0,0,2.1,2.88,9.7,9.7,0,0,0,3.22,1.93,11.61,11.61,0,0,0,4.12.71,14.6,14.6,0,0,0,3.64-.43,15.21,15.21,0,0,0,2.74-1,14.56,14.56,0,0,0,1.76-.95,5.19,5.19,0,0,1,.7-.42.7.7,0,0,1,.45.2A.56.56,0,0,1,479.21,46.15Zm-19.72-8.57q1-.34,2.16-.81c.8-.32,1.59-.67,2.35-1s1.47-.73,2.1-1.06a10.81,10.81,0,0,0,1.46-.9,2.83,2.83,0,0,0,1-2.46,4.21,4.21,0,0,0-.26-1.4,3.93,3.93,0,0,0-.75-1.32,4,4,0,0,0-1.23-.95,3.65,3.65,0,0,0-1.63-.36,3.28,3.28,0,0,0-1.68.53,5.26,5.26,0,0,0-1.68,1.73,11.22,11.22,0,0,0-1.31,3.2A18.68,18.68,0,0,0,459.49,37.58Z"/><path class="cls-1" d="M498.81,35.28a26.8,26.8,0,0,0-.79-3.1,8.08,8.08,0,0,0-1.12-2.3,4.5,4.5,0,0,0-1.62-1.4,5.22,5.22,0,0,0-2.36-.48,5.6,5.6,0,0,0-2.26.45,7.56,7.56,0,0,0-1.79,1.06,6.11,6.11,0,0,0-1.18,1.24,2.76,2.76,0,0,0-.48.95.45.45,0,0,1-.5.45,2.27,2.27,0,0,1-1.46-.56,1.73,1.73,0,0,1-.67-1.35,1.63,1.63,0,0,1,.11-.67c.86-.48,1.91-1,3.14-1.57s2.51-1.08,3.84-1.57a38.43,38.43,0,0,1,3.94-1.2,15,15,0,0,1,3.53-.47,7.79,7.79,0,0,1,3.61.67,4.26,4.26,0,0,1,1.88,1.9,7.82,7.82,0,0,1,.75,2.89c.1,1.1.18,2.28.26,3.55.11,1.91.26,3.74.44,5.52a30.42,30.42,0,0,0,.84,4.7,11.23,11.23,0,0,0,1.43,3.31,2.57,2.57,0,0,0,2.16,1.25,4.51,4.51,0,0,0,1.34-.22,11.6,11.6,0,0,0,1.4-.53c.45-.21.85-.41,1.21-.62l.7-.42a.57.57,0,0,1,.61.51,1,1,0,0,1-.11.5,6,6,0,0,1-.84.56c-.48.3-1.08.65-1.79,1.06s-1.49.85-2.35,1.32-1.71.91-2.55,1.32-1.62.74-2.32,1a5.06,5.06,0,0,1-1.69.4,1.64,1.64,0,0,1-1.25-.59,5.09,5.09,0,0,1-.93-1.57,14.73,14.73,0,0,1-.67-2.27c-.19-.86-.36-1.75-.5-2.68-.68.55-1.54,1.22-2.58,2a30.21,30.21,0,0,1-3.42,2.16A27.76,27.76,0,0,1,491,52.17a11,11,0,0,1-3.72.7,6.6,6.6,0,0,1-2.63-.48,5.75,5.75,0,0,1-1.88-1.26,5,5,0,0,1-1.12-1.82,6.51,6.51,0,0,1-.36-2.15,4.07,4.07,0,0,1,1.09-2.94,13.53,13.53,0,0,1,3.39-2.38c.71-.38,1.7-.87,3-1.49l3.89-1.88c1.32-.63,2.55-1.24,3.69-1.81S498.28,35.62,498.81,35.28ZM500.43,44c-.11-.63-.22-1.32-.34-2.07s-.22-1.46-.33-2.13-.22-1.25-.31-1.73-.16-.81-.2-1l-2,.79c-.75.3-1.5.62-2.24,1s-1.46.71-2.13,1.06-1.23.68-1.68,1a8.31,8.31,0,0,0-2,1.68,3.13,3.13,0,0,0-.67,2,4.49,4.49,0,0,0,.95,2.85,3.49,3.49,0,0,0,3,1.24,6.87,6.87,0,0,0,2.21-.39,17.25,17.25,0,0,0,2.13-.9,16.13,16.13,0,0,0,1.71-1,8.84,8.84,0,0,0,1-.78,8.36,8.36,0,0,0,.7-.76A1.12,1.12,0,0,0,500.43,44Z"/><path class="cls-1" d="M542,44.91c.07-.07.14-.06.19,0a.86.86,0,0,1,.11.4,1.93,1.93,0,0,1,0,.53.88.88,0,0,1-.23.45,24.43,24.43,0,0,1-2.8,2.23,39,39,0,0,1-3.47,2.19c-.34.19-.8.43-1.4.73s-1.26.58-2,.87a22.53,22.53,0,0,1-2.24.72,8.09,8.09,0,0,1-2.15.31,9.41,9.41,0,0,1-3.81-.78A9.75,9.75,0,0,1,519,47.16a11.26,11.26,0,0,1-.75-4.15,15,15,0,0,1,.67-4.54,24.43,24.43,0,0,1,1.54-3.8,27.48,27.48,0,0,1,1.65-2.83,19.35,19.35,0,0,0,1.07-1.71c-.71,0-1.36-.06-1.94-.08l-1.65,0c-1.19,0-2.2,0-3,0a10.82,10.82,0,0,0-2.19.25,1.92,1.92,0,0,0-.84.45,5,5,0,0,1-.67.5l-.31-.31a.58.58,0,0,1-.19-.42.29.29,0,0,1,0-.17,5.42,5.42,0,0,1,.73-.64c.49-.39,1.09-.86,1.82-1.4l2.41-1.79c.88-.65,1.72-1.26,2.52-1.82s1.49-1,2.07-1.43a9,9,0,0,1,1.15-.7.75.75,0,0,1,.67.11c.22.15.3.26.22.34a3.75,3.75,0,0,0-.5.42c-.22.2-.3.38-.22.53a5.7,5.7,0,0,0,2.13.9,29,29,0,0,0,3.41.64c1.27.17,2.58.3,3.92.39s2.56.14,3.64.14c1.61,0,2.89,0,3.87-.14a18,18,0,0,0,2.4-.36,10.18,10.18,0,0,0,1.18-.34s.11.06.22.17a.5.5,0,0,1,.17.39c0,.08-.27.26-.81.56s-1.09.62-1.65,1c-.34.18-.74.42-1.21.72s-1,.59-1.51.87a16.67,16.67,0,0,1-1.71.76,6.23,6.23,0,0,1-1.73.39c-.56.07-1.22.13-2,.17l-2.35.08-2.5.06c-.84,0-1.61,0-2.32,0l-.53.93a8.78,8.78,0,0,0-.7,1.65,21.43,21.43,0,0,0-.62,2.3,13,13,0,0,0-.28,2.8,12.27,12.27,0,0,0,.7,4.23,10.22,10.22,0,0,0,2,3.33,8.92,8.92,0,0,0,3,2.18,9,9,0,0,0,3.75.78,9.47,9.47,0,0,0,2.27-.27,12.34,12.34,0,0,0,2.07-.73,15.45,15.45,0,0,0,3.28-2Z"/><path class="cls-1" d="M553.52,30.91c.74-.67,1.58-1.37,2.52-2.09a27.3,27.3,0,0,1,2.94-2,16.86,16.86,0,0,1,3.22-1.51,10.07,10.07,0,0,1,3.41-.59,10.87,10.87,0,0,1,3.78.64,9.29,9.29,0,0,1,3.11,1.88,9,9,0,0,1,2.13,2.94,9.14,9.14,0,0,1,.78,3.83,20.66,20.66,0,0,1-1.48,7.93,30.13,30.13,0,0,1-3.47,6.33,31.54,31.54,0,0,1-4,4.51,22,22,0,0,1-2.91,2.35A.42.42,0,0,1,563,55a.4.4,0,0,1,0-.61,9,9,0,0,0,1.37-1.65,22.91,22.91,0,0,0,1.87-3.34A28.35,28.35,0,0,0,568,44.8a20.06,20.06,0,0,0,.73-5.54,14.58,14.58,0,0,0-.59-4.37,9.83,9.83,0,0,0-1.59-3.19,7,7,0,0,0-2.33-2,6.07,6.07,0,0,0-2.82-.67,8.16,8.16,0,0,0-2.13.3,8.7,8.7,0,0,0-2.07.87,11.37,11.37,0,0,0-2,1.52,5.92,5.92,0,0,0-1.4,1.84c-.08.15-.14.29-.2.42a3.51,3.51,0,0,0-.17.56c0,.25-.11.55-.17.93s-.1.87-.14,1.51c-.11,1.08-.19,2.14-.25,3.16s-.08,2.25-.08,3.67a20.69,20.69,0,0,0,.33,4.23,2.11,2.11,0,0,0,2,1.71l.4,0,.5-.08.56-.17a.25.25,0,0,1,.25.17.68.68,0,0,1,.09.33c0,.11-.21.28-.62.5a12.83,12.83,0,0,1-1.57.71q-.95.36-2.1.72l-2.15.7-1.82.51a4.42,4.42,0,0,1-1,.22q-1.68,0-1.68-1.29a3.88,3.88,0,0,1,.28-1.06,10.78,10.78,0,0,0,.45-2.41c.15-1.57.3-3.29.45-5.18s.27-3.78.36-5.68.17-3.77.22-5.6.09-3.47.09-4.93q0-4-.14-6.83c-.1-1.87-.18-3.19-.25-4a11.71,11.71,0,0,0-.34-1.93,5,5,0,0,0-.39-.87,1.63,1.63,0,0,0-.7-.7,3,3,0,0,0-.79-.25,2.19,2.19,0,0,0-.61,0c-.17,0-.25,0-.25-.08a1.71,1.71,0,0,1,.5-1.29,1.8,1.8,0,0,1,1.34-.5q1.64,0,3.36-.06c1.16,0,2.23-.09,3.2-.17a19.74,19.74,0,0,0,2.26-.33c.69-.15,1.15-.27,1.38-.34s.45,0,.47.14a5.37,5.37,0,0,1,0,.7.54.54,0,0,1-.28.5,2.5,2.5,0,0,1-.62.28c-.22.08-.43.14-.64.2a.7.7,0,0,0-.42.25,6.92,6.92,0,0,0-.45,2.07c-.15,1.16-.29,2.63-.42,4.4s-.24,3.74-.33,5.91-.16,4.35-.2,6.55Z"/><path class="cls-1" d="M582.58,51.3a2.72,2.72,0,0,0-.84.92,5.29,5.29,0,0,0-.5,1c0,.08-.14.14-.31.2a1.55,1.55,0,0,1-.37.08.44.44,0,0,1-.5-.5,3,3,0,0,1,.45-.9l1.06-1.76c.49-.8,1-1.62,1.49-2.47s1-1.6,1.4-2.29a12.08,12.08,0,0,1,.92-1.37.53.53,0,0,1,.67-.09c.26.13.34.29.23.48a.57.57,0,0,0-.17.28,1.84,1.84,0,0,0-.06.56q0,.51.87,1.26a11.43,11.43,0,0,0,2.21,1.45,18.23,18.23,0,0,0,3,1.21,10.6,10.6,0,0,0,3.19.5,4,4,0,0,0,2.94-1.06,3.72,3.72,0,0,0,1.09-2.8,3.44,3.44,0,0,0-1.23-2.91A8.74,8.74,0,0,0,595,41.61a31.73,31.73,0,0,0-4-.81,21.79,21.79,0,0,1-4-.93A8,8,0,0,1,584,38.08a4.46,4.46,0,0,1-1.24-3.41A6.33,6.33,0,0,1,584,31.14,12.09,12.09,0,0,1,587.2,28a18.22,18.22,0,0,1,4.56-2.3,16.19,16.19,0,0,1,5.38-.89,13.63,13.63,0,0,1,2,.16c.75.11,1.48.26,2.21.42s1.4.34,2,.51,1.07.31,1.37.42c.07,0,.06.15-.06.45a8.11,8.11,0,0,1-.84,1.54,22.86,22.86,0,0,1-1.48,2c-.54.67-1.05,1.27-1.51,1.79s-.8.78-1,.78h-.34a.51.51,0,0,1-.39-.11,3.56,3.56,0,0,0,.06-.73A3.48,3.48,0,0,0,597.39,29a9.66,9.66,0,0,0-5.12-1.11,3.74,3.74,0,0,0-2.66.95,3,3,0,0,0-1,2.29,4.06,4.06,0,0,0,1.23,3.25,8.12,8.12,0,0,0,3.08,1.6,28.55,28.55,0,0,0,4,.81,23.69,23.69,0,0,1,4,.87,7.9,7.9,0,0,1,3.08,1.76,4.67,4.67,0,0,1,1.23,3.53A5,5,0,0,1,604.7,45a8.23,8.23,0,0,1-1.18,1.9,12.08,12.08,0,0,1-1.62,1.66,15.64,15.64,0,0,1-1.79,1.31c-.56.38-1.2.76-1.91,1.15a21.14,21.14,0,0,1-2.29,1.09,16.08,16.08,0,0,1-2.52.81,10.83,10.83,0,0,1-2.58.31,11.77,11.77,0,0,1-2-.25c-.89-.17-1.8-.36-2.71-.59s-1.73-.44-2.44-.64A3.78,3.78,0,0,1,582.58,51.3Z"/></svg>